<?xml version="1.0" encoding="UTF-8" standalone="no"?>
<!-- Created with Inkscape (http://www.inkscape.org/) -->

<svg
   xmlns:dc="http://purl.org/dc/elements/1.1/"
   xmlns:cc="http://creativecommons.org/ns#"
   xmlns:rdf="http://www.w3.org/1999/02/22-rdf-syntax-ns#"
   xmlns:svg="http://www.w3.org/2000/svg"
   xmlns="http://www.w3.org/2000/svg"
   xmlns:sodipodi="http://sodipodi.sourceforge.net/DTD/sodipodi-0.dtd"
   xmlns:inkscape="http://www.inkscape.org/namespaces/inkscape"
   width="210mm"
   height="297mm"
   viewBox="0 0 210 297"
   version="1.1"
   id="svg8"
   inkscape:version="0.92.3 (2405546, 2018-03-11)"
   sodipodi:docname="logos.svg">
  <defs
     id="defs2" />
  <sodipodi:namedview
     id="base"
     pagecolor="#ffffff"
     bordercolor="#666666"
     borderopacity="1.0"
     inkscape:pageopacity="0.0"
     inkscape:pageshadow="2"
     inkscape:zoom="0.35"
     inkscape:cx="305.89347"
     inkscape:cy="1271.5562"
     inkscape:document-units="mm"
     inkscape:current-layer="layer1"
     showgrid="false"
     showguides="true"
     inkscape:window-width="1366"
     inkscape:window-height="719"
     inkscape:window-x="0"
     inkscape:window-y="25"
     inkscape:window-maximized="1"
     inkscape:lockguides="true" />
  <metadata
     id="metadata5">
    <rdf:RDF>
      <cc:Work
         rdf:about="">
        <dc:format>image/svg+xml</dc:format>
        <dc:type
           rdf:resource="http://purl.org/dc/dcmitype/StillImage" />
        <dc:title />
      </cc:Work>
    </rdf:RDF>
  </metadata>
  <g
     inkscape:label="Layer 1"
     inkscape:groupmode="layer"
     id="layer1">
    <rect
       style="opacity:1;fill:#0a0a0a;fill-opacity:1;fill-rule:nonzero;stroke:none;stroke-width:2.36000013;stroke-miterlimit:4;stroke-dasharray:none;stroke-opacity:1"
       id="rect1635"
       width="289.72015"
       height="276.89124"
       x="-55.59206"
       y="-2.8764105" />
    <rect
       style="opacity:1;fill:#121212;fill-opacity:1;fill-rule:nonzero;stroke:none;stroke-width:2.36000013;stroke-miterlimit:4;stroke-dasharray:none;stroke-opacity:1"
       id="rect815-5-94-1"
       width="199.57143"
       height="199.57143"
       x="-8.650176"
       y="30.205694"
       rx="14.368"
       inkscape:export-filename="/home/windows87/Área de Trabalho/Projetos/Jobs/Rifas/Artes/PNGs/logo.png"
       inkscape:export-xdpi="162.90909"
       inkscape:export-ydpi="162.90909" />
    <path
       inkscape:connector-curvature="0"
       style="opacity:1;fill:#ffeb3b;fill-opacity:1;fill-rule:nonzero;stroke:none;stroke-width:2.17035341;stroke-miterlimit:4;stroke-dasharray:none;stroke-opacity:1"
       d="m 97.327099,30.205803 -68.58444,113.394117 1.81642,1.33274 a 4.7938761,4.7938761 0 0 1 6.57738,-0.89039 4.7938761,4.7938761 0 0 1 1.13999,6.55257 l 1.54461,1.13327 a 4.7938761,4.7938761 0 0 1 6.66987,-1.00408 4.7938761,4.7938761 0 0 1 1.0573,6.67401 l 1.72755,1.26763 a 4.7938761,4.7938761 0 0 1 6.68744,-1.0263 4.7938761,4.7938761 0 0 1 1.0418,6.69778 l 1.04438,0.76636 a 4.7938761,4.7938761 0 0 1 6.6921,-1.02215 4.7938761,4.7938761 0 0 1 1.03715,6.69416 l 1.08365,0.79478 85.501241,-141.364497 z"
       id="rect1007-78-0"
       inkscape:export-filename="/home/windows87/Área de Trabalho/Projetos/Jobs/Rifas/Artes/PNGs/logo.png"
       inkscape:export-xdpi="162.90909"
       inkscape:export-ydpi="162.90909" />
    <path
       id="path1458-4-6"
       d="m 86.659139,229.81204 68.584451,-113.39411 -1.81642,-1.33273 a 4.7938761,4.7938761 0 0 1 -6.57739,0.89039 4.7938761,4.7938761 0 0 1 -1.13997,-6.55258 l -1.54461,-1.13326 a 4.7938761,4.7938761 0 0 1 -6.66988,1.00407 4.7938761,4.7938761 0 0 1 -1.0573,-6.67401 l -1.72754,-1.26762 a 4.7938761,4.7938761 0 0 1 -6.68746,1.02629 4.7938761,4.7938761 0 0 1 -1.0418,-6.697777 l -1.04436,-0.76636 a 4.7938761,4.7938761 0 0 1 -6.6921,1.02216 4.7938761,4.7938761 0 0 1 -1.03716,-6.69417 l -1.08365,-0.79478 -85.501251,141.364487 z"
       style="opacity:1;fill:#7cb342;fill-opacity:1;fill-rule:nonzero;stroke:none;stroke-width:2.17035341;stroke-miterlimit:4;stroke-dasharray:none;stroke-opacity:1"
       inkscape:connector-curvature="0"
       inkscape:export-filename="/home/windows87/Área de Trabalho/Projetos/Jobs/Rifas/Artes/PNGs/logo.png"
       inkscape:export-xdpi="162.90909"
       inkscape:export-ydpi="162.90909" />
    <text
       xml:space="preserve"
       style="font-style:normal;font-variant:normal;font-weight:normal;font-stretch:normal;font-size:46.42590332px;line-height:1.25;font-family:Staatliches;-inkscape-font-specification:Staatliches;letter-spacing:0px;word-spacing:0px;fill:#000000;fill-opacity:1;stroke:none;stroke-width:1.16064751"
       x="63.46579"
       y="128.42261"
       id="text1560"
       inkscape:export-filename="/home/windows87/Área de Trabalho/Projetos/Jobs/Rifas/Artes/PNGs/logo.png"
       inkscape:export-xdpi="162.90909"
       inkscape:export-ydpi="162.90909"><tspan
         sodipodi:role="line"
         id="tspan1558"
         x="63.46579"
         y="128.42261"
         style="stroke-width:1.16064751">R</tspan></text>
    <text
       xml:space="preserve"
       style="font-style:normal;font-variant:normal;font-weight:normal;font-stretch:normal;font-size:46.42590332px;line-height:1.25;font-family:Staatliches;-inkscape-font-specification:Staatliches;letter-spacing:0px;word-spacing:0px;fill:#000000;fill-opacity:1;stroke:none;stroke-width:1.16064751"
       x="96.353653"
       y="165.21095"
       id="text1560-8"
       inkscape:export-filename="/home/windows87/Área de Trabalho/Projetos/Jobs/Rifas/Artes/PNGs/logo.png"
       inkscape:export-xdpi="162.90909"
       inkscape:export-ydpi="162.90909"><tspan
         sodipodi:role="line"
         id="tspan1558-3"
         x="96.353653"
         y="165.21095"
         style="stroke-width:1.16064751">b</tspan></text>
    <rect
       style="opacity:1;fill:#0a0a0a;fill-opacity:1;fill-rule:nonzero;stroke:none;stroke-width:1.92730212;stroke-miterlimit:4;stroke-dasharray:none;stroke-opacity:1"
       id="rect1635-5"
       width="289.72018"
       height="184.66504"
       x="-55.59206"
       y="-187.54144"
       inkscape:export-filename="/home/windows87/Área de Trabalho/Projetos/Jobs/Rifas/Artes/PNGs/logo-text-gray.png"
       inkscape:export-xdpi="112.21861"
       inkscape:export-ydpi="112.21861" />
    <g
       id="g2511">
      <g
         inkscape:export-ydpi="154.86273"
         inkscape:export-xdpi="154.86273"
         inkscape:export-filename="/home/windows87/Área de Trabalho/Projetos/Jobs/Rifas/Artes/PNGs/text-logo.png"
         transform="matrix(0.76303482,-0.22460789,0.22460789,0.76303482,-55.797104,252.90361)"
         id="g1773">
        <g
           id="g1702"
           transform="matrix(0.84460566,0,0,0.84460566,637.44636,-72.966631)">
          <path
             inkscape:connector-curvature="0"
             id="path1670"
             d="m -366.88257,-332.85232 -44.69096,73.89023 2.38725,1.75156 a 6.3004035,6.3004035 0 0 1 8.64439,-1.1702 6.3004035,6.3004035 0 0 1 1.49824,8.61179 l 2.02999,1.48941 a 6.3004035,6.3004035 0 0 1 8.76596,-1.31962 6.3004035,6.3004035 0 0 1 1.38957,8.7714 l 2.27044,1.66599 a 6.3004035,6.3004035 0 0 1 8.78906,-1.34882 6.3004035,6.3004035 0 0 1 1.36919,8.80263 l 1.37259,1.0072 a 6.3004035,6.3004035 0 0 1 8.79517,-1.34339 6.3004035,6.3004035 0 0 1 1.36308,8.79789 l 1.4242,1.04455 49.50692,-81.85274 z"
             style="opacity:1;fill:#ffeb3b;fill-opacity:1;fill-rule:nonzero;stroke:none;stroke-width:2.85241032;stroke-miterlimit:4;stroke-dasharray:none;stroke-opacity:1" />
          <path
             style="opacity:1;fill:#7cb342;fill-opacity:1;fill-rule:nonzero;stroke:none;stroke-width:2.85241032;stroke-miterlimit:4;stroke-dasharray:none;stroke-opacity:1"
             d="m -290.02609,-220.99609 44.69096,-73.89023 -2.38725,-1.75156 a 6.3004035,6.3004035 0 0 1 -8.64439,1.1702 6.3004035,6.3004035 0 0 1 -1.49824,-8.61179 l -2.02999,-1.48941 a 6.3004035,6.3004035 0 0 1 -8.76596,1.31962 6.3004035,6.3004035 0 0 1 -1.38957,-8.7714 l -2.27044,-1.66599 a 6.3004035,6.3004035 0 0 1 -8.78906,1.34882 6.3004035,6.3004035 0 0 1 -1.36919,-8.80263 l -1.37259,-1.0072 a 6.3004035,6.3004035 0 0 1 -8.79517,1.34339 6.3004035,6.3004035 0 0 1 -1.36308,-8.79789 l -1.4242,-1.04455 -49.50692,81.85274 z"
             id="path1698"
             inkscape:connector-curvature="0" />
        </g>
      </g>
      <g
         id="g2438">
        <text
           xml:space="preserve"
           style="font-style:normal;font-variant:normal;font-weight:normal;font-stretch:normal;font-size:70.75699615px;line-height:1.25;font-family:Staatliches;-inkscape-font-specification:Staatliches;text-align:center;letter-spacing:0px;word-spacing:0px;text-anchor:middle;fill:#ffffff;fill-opacity:1;stroke:none;stroke-width:1.76892495"
           x="67.87767"
           y="-93.623383"
           id="text1592"
           inkscape:export-filename="/home/windows87/Área de Trabalho/Projetos/Jobs/Rifas/Artes/PNGs/text-logo.png"
           inkscape:export-xdpi="154.86273"
           inkscape:export-ydpi="154.86273"><tspan
             sodipodi:role="line"
             x="71.192406"
             y="-93.623383"
             style="text-align:center;letter-spacing:6.62947035px;word-spacing:0px;text-anchor:middle;fill:#ffffff;fill-opacity:1;stroke-width:1.76892495"
             id="tspan1594">RIFAS</tspan></text>
        <text
           xml:space="preserve"
           style="font-style:normal;font-variant:normal;font-weight:normal;font-stretch:normal;font-size:43.90325165px;line-height:1.25;font-family:Staatliches;-inkscape-font-specification:Staatliches;letter-spacing:0px;word-spacing:0px;fill:#373a36;fill-opacity:1;stroke:none;stroke-width:1.09758115"
           x="118.34138"
           y="-43.230255"
           id="text1560-2"
           inkscape:export-filename="/home/windows87/Área de Trabalho/Projetos/Jobs/Rifas/Artes/PNGs/text-logo.png"
           inkscape:export-xdpi="154.86273"
           inkscape:export-ydpi="154.86273"><tspan
             sodipodi:role="line"
             id="tspan1558-2"
             x="118.34138"
             y="-43.230255"
             style="fill:#373a36;fill-opacity:1;stroke-width:1.09758115">B</tspan></text>
        <text
           xml:space="preserve"
           style="font-style:normal;font-variant:normal;font-weight:normal;font-stretch:normal;font-size:42.82555389px;line-height:1.25;font-family:Staatliches;-inkscape-font-specification:Staatliches;letter-spacing:0px;word-spacing:0px;fill:#373a36;fill-opacity:1;stroke:none;stroke-width:1.07063878"
           x="163.00932"
           y="-53.760162"
           id="text1560-2-2"
           inkscape:export-filename="/home/windows87/Área de Trabalho/Projetos/Jobs/Rifas/Artes/PNGs/text-logo.png"
           inkscape:export-xdpi="154.86273"
           inkscape:export-ydpi="154.86273"><tspan
             sodipodi:role="line"
             id="tspan1558-2-7"
             x="163.00932"
             y="-53.760162"
             style="fill:#373a36;fill-opacity:1;stroke-width:1.07063878">R</tspan></text>
      </g>
    </g>
  </g>
</svg>
