<?xml version="1.0" encoding="UTF-8" standalone="no"?>
<!-- Created with Inkscape (http://www.inkscape.org/) -->

<svg
   xmlns:dc="http://purl.org/dc/elements/1.1/"
   xmlns:cc="http://creativecommons.org/ns#"
   xmlns:rdf="http://www.w3.org/1999/02/22-rdf-syntax-ns#"
   xmlns:svg="http://www.w3.org/2000/svg"
   xmlns="http://www.w3.org/2000/svg"
   xmlns:sodipodi="http://sodipodi.sourceforge.net/DTD/sodipodi-0.dtd"
   xmlns:inkscape="http://www.inkscape.org/namespaces/inkscape"
   width="210mm"
   height="297mm"
   viewBox="0 0 210 297"
   version="1.1"
   id="svg8"
   inkscape:version="0.92.3 (2405546, 2018-03-11)"
   sodipodi:docname="logos.svg">
  <defs
     id="defs2" />
  <sodipodi:namedview
     id="base"
     pagecolor="#ffffff"
     bordercolor="#666666"
     borderopacity="1.0"
     inkscape:pageopacity="0.0"
     inkscape:pageshadow="2"
     inkscape:zoom="0.38"
     inkscape:cx="262.05628"
     inkscape:cy="2368.9397"
     inkscape:document-units="mm"
     inkscape:current-layer="layer1"
     showgrid="false"
     showguides="true"
     inkscape:window-width="828"
     inkscape:window-height="718"
     inkscape:window-x="536"
     inkscape:window-y="25"
     inkscape:window-maximized="0"
     inkscape:lockguides="true" />
  <metadata
     id="metadata5">
    <rdf:RDF>
      <cc:Work
         rdf:about="">
        <dc:format>image/svg+xml</dc:format>
        <dc:type
           rdf:resource="http://purl.org/dc/dcmitype/StillImage" />
        <dc:title />
      </cc:Work>
    </rdf:RDF>
  </metadata>
  <g
     inkscape:label="Layer 1"
     inkscape:groupmode="layer"
     id="layer1">
    <rect
       style="opacity:1;fill:#0a0a0a;fill-opacity:1;fill-rule:nonzero;stroke:none;stroke-width:2.36000013;stroke-miterlimit:4;stroke-dasharray:none;stroke-opacity:1"
       id="rect1635"
       width="289.72015"
       height="276.89124"
       x="-55.59206"
       y="-2.8764105" />
    <rect
       style="opacity:1;fill:#121212;fill-opacity:1;fill-rule:nonzero;stroke:none;stroke-width:2.36000013;stroke-miterlimit:4;stroke-dasharray:none;stroke-opacity:1"
       id="rect815-5-94-1"
       width="199.57143"
       height="199.57143"
       x="-8.650176"
       y="30.205694"
       rx="14.368"
       inkscape:export-filename="/home/windows87/Área de Trabalho/Projetos/Jobs/Rifas/Artes/PNGs/logo.png"
       inkscape:export-xdpi="162.90909"
       inkscape:export-ydpi="162.90909" />
    <path
       inkscape:connector-curvature="0"
       style="opacity:1;fill:#ffeb3b;fill-opacity:1;fill-rule:nonzero;stroke:none;stroke-width:2.17035341;stroke-miterlimit:4;stroke-dasharray:none;stroke-opacity:1"
       d="m 97.327099,30.205803 -68.58444,113.394117 1.81642,1.33274 a 4.7938761,4.7938761 0 0 1 6.57738,-0.89039 4.7938761,4.7938761 0 0 1 1.13999,6.55257 l 1.54461,1.13327 a 4.7938761,4.7938761 0 0 1 6.66987,-1.00408 4.7938761,4.7938761 0 0 1 1.0573,6.67401 l 1.72755,1.26763 a 4.7938761,4.7938761 0 0 1 6.68744,-1.0263 4.7938761,4.7938761 0 0 1 1.0418,6.69778 l 1.04438,0.76636 a 4.7938761,4.7938761 0 0 1 6.6921,-1.02215 4.7938761,4.7938761 0 0 1 1.03715,6.69416 l 1.08365,0.79478 85.501241,-141.364497 z"
       id="rect1007-78-0"
       inkscape:export-filename="/home/windows87/Área de Trabalho/Projetos/Jobs/Rifas/Artes/PNGs/logo.png"
       inkscape:export-xdpi="162.90909"
       inkscape:export-ydpi="162.90909" />
    <path
       id="path1458-4-6"
       d="m 86.659139,229.81204 68.584451,-113.39411 -1.81642,-1.33273 a 4.7938761,4.7938761 0 0 1 -6.57739,0.89039 4.7938761,4.7938761 0 0 1 -1.13997,-6.55258 l -1.54461,-1.13326 a 4.7938761,4.7938761 0 0 1 -6.66988,1.00407 4.7938761,4.7938761 0 0 1 -1.0573,-6.67401 l -1.72754,-1.26762 a 4.7938761,4.7938761 0 0 1 -6.68746,1.02629 4.7938761,4.7938761 0 0 1 -1.0418,-6.697777 l -1.04436,-0.76636 a 4.7938761,4.7938761 0 0 1 -6.6921,1.02216 4.7938761,4.7938761 0 0 1 -1.03716,-6.69417 l -1.08365,-0.79478 -85.501251,141.364487 z"
       style="opacity:1;fill:#7cb342;fill-opacity:1;fill-rule:nonzero;stroke:none;stroke-width:2.17035341;stroke-miterlimit:4;stroke-dasharray:none;stroke-opacity:1"
       inkscape:connector-curvature="0"
       inkscape:export-filename="/home/windows87/Área de Trabalho/Projetos/Jobs/Rifas/Artes/PNGs/logo.png"
       inkscape:export-xdpi="162.90909"
       inkscape:export-ydpi="162.90909" />
    <text
       xml:space="preserve"
       style="font-style:normal;font-variant:normal;font-weight:normal;font-stretch:normal;font-size:46.42590332px;line-height:1.25;font-family:Staatliches;-inkscape-font-specification:Staatliches;letter-spacing:0px;word-spacing:0px;fill:#000000;fill-opacity:1;stroke:none;stroke-width:1.16064751"
       x="63.46579"
       y="128.42261"
       id="text1560"
       inkscape:export-filename="/home/windows87/Área de Trabalho/Projetos/Jobs/Rifas/Artes/PNGs/logo.png"
       inkscape:export-xdpi="162.90909"
       inkscape:export-ydpi="162.90909"><tspan
         sodipodi:role="line"
         id="tspan1558"
         x="63.46579"
         y="128.42261"
         style="stroke-width:1.16064751">R</tspan></text>
    <text
       xml:space="preserve"
       style="font-style:normal;font-variant:normal;font-weight:normal;font-stretch:normal;font-size:46.42590332px;line-height:1.25;font-family:Staatliches;-inkscape-font-specification:Staatliches;letter-spacing:0px;word-spacing:0px;fill:#000000;fill-opacity:1;stroke:none;stroke-width:1.16064751"
       x="96.353653"
       y="165.21095"
       id="text1560-8"
       inkscape:export-filename="/home/windows87/Área de Trabalho/Projetos/Jobs/Rifas/Artes/PNGs/logo.png"
       inkscape:export-xdpi="162.90909"
       inkscape:export-ydpi="162.90909"><tspan
         sodipodi:role="line"
         id="tspan1558-3"
         x="96.353653"
         y="165.21095"
         style="stroke-width:1.16064751">b</tspan></text>
    <rect
       style="opacity:1;fill:#0a0a0a;fill-opacity:1;fill-rule:nonzero;stroke:none;stroke-width:1.92730212;stroke-miterlimit:4;stroke-dasharray:none;stroke-opacity:1"
       id="rect1635-5"
       width="289.72018"
       height="184.66504"
       x="-55.59206"
       y="-187.54144"
       inkscape:export-filename="/home/windows87/Área de Trabalho/Projetos/Jobs/Rifas/Artes/PNGs/logo-text-gray.png"
       inkscape:export-xdpi="112.21861"
       inkscape:export-ydpi="112.21861" />
    <text
       xml:space="preserve"
       style="font-style:normal;font-variant:normal;font-weight:normal;font-stretch:normal;font-size:70.75699615px;line-height:1.25;font-family:Staatliches;-inkscape-font-specification:Staatliches;text-align:center;letter-spacing:0px;word-spacing:0px;text-anchor:middle;fill:#ffffff;fill-opacity:1;stroke:none;stroke-width:1.76892495"
       x="67.87767"
       y="-93.623383"
       id="text1592"
       inkscape:export-filename="/home/windows87/Área de Trabalho/Projetos/Jobs/Rifas/Artes/PNGs/text-logo.png"
       inkscape:export-xdpi="154.86273"
       inkscape:export-ydpi="154.86273"><tspan
         sodipodi:role="line"
         x="71.192406"
         y="-93.623383"
         style="text-align:center;letter-spacing:6.62947035px;word-spacing:0px;text-anchor:middle;fill:#ffffff;fill-opacity:1;stroke-width:1.76892495"
         id="tspan1594">RIFAS</tspan></text>
    <g
       id="g1773"
       transform="matrix(0.76303482,-0.22460789,0.22460789,0.76303482,-55.797104,252.90361)"
       inkscape:export-filename="/home/windows87/Área de Trabalho/Projetos/Jobs/Rifas/Artes/PNGs/text-logo.png"
       inkscape:export-xdpi="154.86273"
       inkscape:export-ydpi="154.86273">
      <g
         transform="matrix(0.84460566,0,0,0.84460566,637.44636,-72.966631)"
         id="g1702">
        <path
           style="opacity:1;fill:#ffeb3b;fill-opacity:1;fill-rule:nonzero;stroke:none;stroke-width:2.85241032;stroke-miterlimit:4;stroke-dasharray:none;stroke-opacity:1"
           d="m -366.88257,-332.85232 -44.69096,73.89023 2.38725,1.75156 a 6.3004035,6.3004035 0 0 1 8.64439,-1.1702 6.3004035,6.3004035 0 0 1 1.49824,8.61179 l 2.02999,1.48941 a 6.3004035,6.3004035 0 0 1 8.76596,-1.31962 6.3004035,6.3004035 0 0 1 1.38957,8.7714 l 2.27044,1.66599 a 6.3004035,6.3004035 0 0 1 8.78906,-1.34882 6.3004035,6.3004035 0 0 1 1.36919,8.80263 l 1.37259,1.0072 a 6.3004035,6.3004035 0 0 1 8.79517,-1.34339 6.3004035,6.3004035 0 0 1 1.36308,8.79789 l 1.4242,1.04455 49.50692,-81.85274 z"
           id="path1670"
           inkscape:connector-curvature="0" />
        <path
           inkscape:connector-curvature="0"
           id="path1698"
           d="m -290.02609,-220.99609 44.69096,-73.89023 -2.38725,-1.75156 a 6.3004035,6.3004035 0 0 1 -8.64439,1.1702 6.3004035,6.3004035 0 0 1 -1.49824,-8.61179 l -2.02999,-1.48941 a 6.3004035,6.3004035 0 0 1 -8.76596,1.31962 6.3004035,6.3004035 0 0 1 -1.38957,-8.7714 l -2.27044,-1.66599 a 6.3004035,6.3004035 0 0 1 -8.78906,1.34882 6.3004035,6.3004035 0 0 1 -1.36919,-8.80263 l -1.37259,-1.0072 a 6.3004035,6.3004035 0 0 1 -8.79517,1.34339 6.3004035,6.3004035 0 0 1 -1.36308,-8.79789 l -1.4242,-1.04455 -49.50692,81.85274 z"
           style="opacity:1;fill:#7cb342;fill-opacity:1;fill-rule:nonzero;stroke:none;stroke-width:2.85241032;stroke-miterlimit:4;stroke-dasharray:none;stroke-opacity:1" />
      </g>
    </g>
    <text
       xml:space="preserve"
       style="font-style:normal;font-variant:normal;font-weight:normal;font-stretch:normal;font-size:43.90325165px;line-height:1.25;font-family:Staatliches;-inkscape-font-specification:Staatliches;letter-spacing:0px;word-spacing:0px;fill:#373a36;fill-opacity:1;stroke:none;stroke-width:1.09758115"
       x="118.34138"
       y="-43.230255"
       id="text1560-2"
       inkscape:export-filename="/home/windows87/Área de Trabalho/Projetos/Jobs/Rifas/Artes/PNGs/text-logo.png"
       inkscape:export-xdpi="154.86273"
       inkscape:export-ydpi="154.86273"><tspan
         sodipodi:role="line"
         id="tspan1558-2"
         x="118.34138"
         y="-43.230255"
         style="fill:#373a36;fill-opacity:1;stroke-width:1.09758115">B</tspan></text>
    <text
       xml:space="preserve"
       style="font-style:normal;font-variant:normal;font-weight:normal;font-stretch:normal;font-size:42.82555389px;line-height:1.25;font-family:Staatliches;-inkscape-font-specification:Staatliches;letter-spacing:0px;word-spacing:0px;fill:#373a36;fill-opacity:1;stroke:none;stroke-width:1.07063878"
       x="163.00932"
       y="-53.760162"
       id="text1560-2-2"
       inkscape:export-filename="/home/windows87/Área de Trabalho/Projetos/Jobs/Rifas/Artes/PNGs/text-logo.png"
       inkscape:export-xdpi="154.86273"
       inkscape:export-ydpi="154.86273"><tspan
         sodipodi:role="line"
         id="tspan1558-2-7"
         x="163.00932"
         y="-53.760162"
         style="fill:#373a36;fill-opacity:1;stroke-width:1.07063878">R</tspan></text>
    <path
       style="opacity:1;fill:#121212;fill-opacity:1;fill-rule:nonzero;stroke:none;stroke-width:8.91968536;stroke-miterlimit:4;stroke-dasharray:none;stroke-opacity:1"
       d="M 9.4746094 -1656.2207 C -20.609946 -1656.2207 -44.830078 -1632.0006 -44.830078 -1601.916 L -44.830078 -956.23828 C -44.830078 -926.15373 -20.609946 -901.93555 9.4746094 -901.93555 L 655.15234 -901.93555 C 685.2369 -901.93555 709.45703 -926.15373 709.45703 -956.23828 L 709.45703 -1601.916 C 709.45703 -1632.0006 685.2369 -1656.2207 655.15234 -1656.2207 L 9.4746094 -1656.2207 z M 44.390625 -1615.4316 L 620.23633 -1615.4316 C 647.06712 -1615.4316 668.66797 -1593.8308 668.66797 -1567 L 668.66797 -991.15625 C 668.66797 -964.32546 647.06712 -942.72461 620.23633 -942.72461 L 44.390625 -942.72461 C 17.559831 -942.72461 -4.0390625 -964.32546 -4.0390625 -991.15625 L -4.0390625 -1567 C -4.0390625 -1593.8308 17.559831 -1615.4316 44.390625 -1615.4316 z "
       transform="scale(0.26458333)"
       id="rect815-5-94-1-5" />
    <path
       style="opacity:1;fill:#ffeb3b;fill-opacity:1;fill-rule:nonzero;stroke:none;stroke-width:8.20291042;stroke-miterlimit:4;stroke-dasharray:none;stroke-opacity:1"
       d="M 358.3457 -1658.8516 L 99.128906 -1230.2754 L 105.99414 -1225.2383 A 18.118587 18.118587 0 0 1 130.85352 -1228.6035 A 18.118587 18.118587 0 0 1 135.16211 -1203.8379 L 141 -1199.5547 A 18.118587 18.118587 0 0 1 166.20898 -1203.3496 A 18.118587 18.118587 0 0 1 170.20508 -1178.125 L 176.73438 -1173.334 A 18.118587 18.118587 0 0 1 202.00977 -1177.2129 A 18.118587 18.118587 0 0 1 205.94727 -1151.8984 L 209.89453 -1149.002 A 18.118587 18.118587 0 0 1 235.1875 -1152.8652 A 18.118587 18.118587 0 0 1 239.10742 -1127.5645 L 243.20312 -1124.5605 L 566.35742 -1658.8516 L 358.3457 -1658.8516 z M 238.4375 -1409.7637 L 273.88281 -1409.7637 C 280.19966 -1409.7637 285.98987 -1408.1858 291.25391 -1405.0273 C 296.63492 -1401.9859 300.90408 -1397.8324 304.0625 -1392.5684 C 307.22092 -1387.4213 308.80078 -1381.5723 308.80078 -1375.0215 C 308.80078 -1370.6933 308.15786 -1366.775 306.87109 -1363.2656 C 305.58433 -1359.8732 304.06327 -1356.9487 302.30859 -1354.4922 C 300.55391 -1352.1526 298.97406 -1350.3983 297.57031 -1349.2285 C 303.88716 -1342.2098 307.04688 -1333.9616 307.04688 -1324.4863 L 307.22266 -1288.5156 C 307.22266 -1287.9307 306.92864 -1287.6387 306.34375 -1287.6387 L 286.51562 -1287.6387 C 286.04771 -1287.6387 285.81445 -1287.8151 285.81445 -1288.166 L 285.81445 -1324.4863 C 285.81445 -1328.6976 284.2934 -1332.3238 281.25195 -1335.3652 C 278.32749 -1338.5237 274.70126 -1340.1035 270.37305 -1340.1035 L 258.79297 -1340.1035 L 258.61719 -1288.5156 C 258.61719 -1287.9307 258.38393 -1287.6387 257.91602 -1287.6387 L 238.08789 -1287.6387 C 237.61998 -1287.6387 237.38477 -1287.9307 237.38477 -1288.5156 L 237.73633 -1409.0625 C 237.73633 -1409.5304 237.96959 -1409.7637 238.4375 -1409.7637 z M 258.79297 -1388.709 L 258.79297 -1361.1602 L 273.88281 -1361.1602 C 277.50915 -1361.1602 280.72572 -1362.5048 283.5332 -1365.1953 C 286.34069 -1367.8858 287.74414 -1371.1612 287.74414 -1375.0215 C 287.74414 -1378.7648 286.34069 -1381.9814 283.5332 -1384.6719 C 280.84269 -1387.3624 277.62613 -1388.709 273.88281 -1388.709 L 258.79297 -1388.709 z "
       transform="scale(0.26458333)"
       id="rect1007-78-0-3" />
    <path
       style="opacity:1;fill:#7cb342;fill-opacity:1;fill-rule:nonzero;stroke:none;stroke-width:8.20291042;stroke-miterlimit:4;stroke-dasharray:none;stroke-opacity:1"
       d="M 433.16992 -1438.7246 L 110.01562 -904.43359 L 318.02734 -904.43359 L 577.24414 -1333.0098 L 570.37891 -1338.0469 A 18.118587 18.118587 0 0 1 545.51953 -1334.6816 A 18.118587 18.118587 0 0 1 541.21094 -1359.4473 L 535.37305 -1363.7305 A 18.118587 18.118587 0 0 1 510.16406 -1359.9355 A 18.118587 18.118587 0 0 1 506.16797 -1385.1602 L 499.63867 -1389.9512 A 18.118587 18.118587 0 0 1 474.36328 -1386.0723 A 18.118587 18.118587 0 0 1 470.42578 -1411.3867 L 466.47852 -1414.2832 A 18.118587 18.118587 0 0 1 441.18555 -1410.4199 A 18.118587 18.118587 0 0 1 437.26562 -1435.7207 L 433.16992 -1438.7246 z M 362.73828 -1270.7227 L 396.42969 -1270.7227 C 403.09747 -1270.7227 409.06213 -1269.084 414.32617 -1265.8086 C 419.59021 -1262.6502 423.74371 -1258.4398 426.78516 -1253.1758 C 429.8266 -1247.9117 431.34766 -1242.1784 431.34766 -1235.9785 C 431.34766 -1230.9484 430.17746 -1226.2696 427.83789 -1221.9414 C 425.6153 -1217.6132 422.92405 -1214.1046 419.76562 -1211.4141 C 423.15801 -1208.0217 425.79045 -1204.1034 427.66211 -1199.6582 C 429.53377 -1195.213 430.46875 -1190.5322 430.46875 -1185.6191 C 430.46875 -1178.8344 428.83204 -1172.6345 425.55664 -1167.0195 C 422.28124 -1161.4046 417.83568 -1156.9021 412.2207 -1153.5098 C 406.72271 -1150.2344 400.58164 -1148.5957 393.79688 -1148.5957 L 362.38867 -1148.5957 C 361.92076 -1148.5957 361.68555 -1148.8878 361.68555 -1149.4727 L 362.03711 -1270.0195 C 362.03711 -1270.4874 362.27037 -1270.7227 362.73828 -1270.7227 z M 383.09375 -1249.8418 L 383.09375 -1222.293 L 396.42969 -1222.293 C 400.52394 -1222.293 403.79931 -1223.6964 406.25586 -1226.5039 C 408.82939 -1229.4284 410.11523 -1232.5861 410.11523 -1235.9785 C 410.11523 -1239.7218 408.77059 -1242.9404 406.08008 -1245.6309 C 403.38957 -1248.4383 400.173 -1249.8418 396.42969 -1249.8418 L 383.09375 -1249.8418 z M 383.09375 -1201.0605 L 382.91797 -1170.0039 L 393.79688 -1170.0039 C 398.00811 -1170.0039 401.63434 -1171.523 404.67578 -1174.5645 C 407.71723 -1177.7229 409.23828 -1181.4079 409.23828 -1185.6191 C 409.23828 -1189.8304 407.71723 -1193.4566 404.67578 -1196.498 C 401.63434 -1199.5395 398.00811 -1201.0605 393.79688 -1201.0605 L 383.09375 -1201.0605 z "
       transform="scale(0.26458333)"
       id="path1458-4-6-5" />
  </g>
</svg>
