<?xml version="1.0" encoding="UTF-8" standalone="no"?>
<!-- Created with Inkscape (http://www.inkscape.org/) -->

<svg
   xmlns:dc="http://purl.org/dc/elements/1.1/"
   xmlns:cc="http://creativecommons.org/ns#"
   xmlns:rdf="http://www.w3.org/1999/02/22-rdf-syntax-ns#"
   xmlns:svg="http://www.w3.org/2000/svg"
   xmlns="http://www.w3.org/2000/svg"
   xmlns:sodipodi="http://sodipodi.sourceforge.net/DTD/sodipodi-0.dtd"
   xmlns:inkscape="http://www.inkscape.org/namespaces/inkscape"
   width="210mm"
   height="297mm"
   viewBox="0 0 210 297"
   version="1.1"
   id="svg1677"
   sodipodi:docname="missions.svg"
   inkscape:version="0.92.3 (2405546, 2018-03-11)">
  <defs
     id="defs1671" />
  <sodipodi:namedview
     id="base"
     pagecolor="#ffffff"
     bordercolor="#666666"
     borderopacity="1.0"
     inkscape:pageopacity="0.0"
     inkscape:pageshadow="2"
     inkscape:zoom="0.12374369"
     inkscape:cx="1368.332"
     inkscape:cy="-691.01628"
     inkscape:document-units="mm"
     inkscape:current-layer="layer1"
     showgrid="false"
     inkscape:window-width="1366"
     inkscape:window-height="719"
     inkscape:window-x="0"
     inkscape:window-y="25"
     inkscape:window-maximized="1" />
  <metadata
     id="metadata1674">
    <rdf:RDF>
      <cc:Work
         rdf:about="">
        <dc:format>image/svg+xml</dc:format>
        <dc:type
           rdf:resource="http://purl.org/dc/dcmitype/StillImage" />
        <dc:title />
      </cc:Work>
    </rdf:RDF>
  </metadata>
  <g
     inkscape:label="Layer 1"
     inkscape:groupmode="layer"
     id="layer1">
    <rect
       style="opacity:1;fill:#1a1a1a;fill-opacity:1;fill-rule:nonzero;stroke:none;stroke-width:5.87181139;stroke-miterlimit:4;stroke-dasharray:none;stroke-opacity:1"
       id="rect1635"
       width="1124.056"
       height="805.02252"
       x="-193.91527"
       y="85.442131"
       rx="21.896721"
       inkscape:export-filename="/home/windows87/mission.png"
       inkscape:export-xdpi="28.923824"
       inkscape:export-ydpi="28.923824" />
    <path
       style="fill:#ffffff;fill-opacity:1;stroke:none;stroke-width:0.65645057px;stroke-linecap:butt;stroke-linejoin:miter;stroke-opacity:1"
       d="m -17.073006,224.79936 c -23.367283,0.36425 -43.110342,16.39074 -43.110342,16.39074 -3.736579,-0.77325 -5.461608,-0.36549 -8.454365,1.57575 -18.661754,-4.83947 -34.742247,-7.93194 -35.390637,-4.9503 -0.64837,2.98165 12.520029,5.84029 32.003248,9.84417 l -12.527686,11.26866 -9.283916,7.29532 -5.446481,3.51559 c -5.157825,0.1171 -9.839435,0.0975 -9.077475,3.20405 0,0 0.57898,3.57585 9.722382,1.93473 l 7.76715,-4.7567 8.887726,-6.38502 11.521217,-9.69802 3.233532,-2.98351 c 4.045931,0.27436 4.698032,0.57092 11.272487,-0.0833 7.157265,-0.52747 77.276427,25.50013 82.124274,4.12204 3.12261,-14.50984 -23.7042653,-29.53078 -38.524162,-30.14928 -1.585255,-0.12431 -3.159136,-0.16921 -4.716952,-0.14489 z m 0.496184,5.62598 c 1.089132,0.0263 2.148123,0.10991 3.168143,0.25901 12.87532575,1.88065 31.829732,11.89314 32.217359,22.04236 -0.428833,6.152 -20.4254733,3.58049 -38.694682,-0.61029 -21.546847,-4.94261 -36.914178,-4.68027 -36.481729,-7.40687 0.327078,-2.06224 23.453889,-14.67944 39.790909,-14.28421 z"
       id="path2229"
       inkscape:connector-curvature="0" />
    <path
       inkscape:connector-curvature="0"
       style="opacity:1;fill:#ff2a2a;fill-opacity:1;fill-rule:nonzero;stroke:none;stroke-width:2.36000013;stroke-miterlimit:4;stroke-dasharray:none;stroke-opacity:1"
       d="m 30.361593,200.45833 c 0,0 -51.659336,0.57609 -52.05832,45.54602 -0.437441,49.30405 52.05832,48.19189 52.05832,48.19189 H 340.3556 c 7.14658,0 12.89997,-5.75339 12.89997,-12.89999 v -67.93797 c 0,-7.1466 -5.75339,-12.89995 -12.89997,-12.89995 z M 15.494799,224.02895 A 23.299261,23.299261 0 0 1 38.794153,247.3283 23.299261,23.299261 0 0 1 15.494799,270.62765 23.299261,23.299261 0 0 1 -7.804552,247.3283 23.299261,23.299261 0 0 1 15.494799,224.02895 Z"
       id="path1641" />
    <path
       style="fill:#ffffff;fill-opacity:1;stroke:none;stroke-width:0.65645057px;stroke-linecap:butt;stroke-linejoin:miter;stroke-opacity:1"
       d="m -15.901581,224.79437 c -0.391389,-0.003 -0.781908,-9e-4 -1.171362,0.005 -23.367284,0.36424 -43.110276,16.39048 -43.110276,16.39048 -3.646379,-0.75459 -5.380649,-0.38021 -8.243297,1.44213 h 14.393925 c 6.31274,-4.20531 24.138207,-12.5289 37.455855,-12.20671 1.089131,0.0263 2.147895,0.10994 3.167914,0.25904 8.4486556,1.23407 19.5151091,5.96968 26.235312,11.94767 h 9.46428 c -7.636891,-9.58772 -24.1516231,-17.24964 -34.647007,-17.68766 -1.188941,-0.0932 -2.371178,-0.14184 -3.545344,-0.15003 z m -84.203289,11.85076 c -2.33787,-0.0261 -3.7412,0.332 -3.92356,1.17058 -0.34299,1.57731 3.18275,3.12012 9.462325,4.81634 h 25.405434 c -13.201855,-3.40912 -25.048019,-5.92112 -30.944199,-5.98692 z"
       id="path2242"
       inkscape:connector-curvature="0" />
    <path
       id="path2247"
       d="m 492.92886,417.26678 c 0,0 -51.65934,0.57609 -52.05832,45.54605 -0.43744,49.30405 52.05832,48.19189 52.05832,48.19189 h 309.99406 c 7.14658,0 12.89997,-5.75339 12.89997,-12.89999 v -67.93797 c 0,-7.1466 -5.75339,-12.89998 -12.89997,-12.89998 z m -14.86679,23.57065 a 23.299261,23.299261 0 0 1 23.29935,23.29935 23.299261,23.299261 0 0 1 -23.29935,23.29935 23.299261,23.299261 0 0 1 -23.29936,-23.29935 23.299261,23.299261 0 0 1 23.29936,-23.29935 z"
       style="opacity:1;fill:#ffeb3b;fill-opacity:1;fill-rule:nonzero;stroke:none;stroke-width:2.36000013;stroke-miterlimit:4;stroke-dasharray:none;stroke-opacity:1"
       inkscape:connector-curvature="0" />
    <path
       inkscape:connector-curvature="0"
       style="opacity:1;fill:#ffffff;fill-opacity:1;fill-rule:nonzero;stroke:none;stroke-width:2.36000013;stroke-miterlimit:4;stroke-dasharray:none;stroke-opacity:1"
       d="m 492.92886,521.51323 c 0,0 -51.65934,0.5761 -52.05832,45.54609 -0.43744,49.30405 52.05832,48.19189 52.05832,48.19189 h 309.99406 c 7.14658,0 12.89997,-5.75339 12.89997,-12.89999 v -67.93797 c 0,-7.1466 -5.75339,-12.90002 -12.89997,-12.90002 z m -14.86679,23.57069 a 23.299261,23.299261 0 0 1 23.29935,23.29935 23.299261,23.299261 0 0 1 -23.29935,23.29935 23.299261,23.299261 0 0 1 -23.29936,-23.29935 23.299261,23.299261 0 0 1 23.29936,-23.29935 z"
       id="path2249" />
    <path
       inkscape:connector-curvature="0"
       style="opacity:1;fill:#7cb342;fill-opacity:1;fill-rule:nonzero;stroke:none;stroke-width:2.36000013;stroke-miterlimit:4;stroke-dasharray:none;stroke-opacity:1"
       d="m 492.92886,311.43281 c 0,0 -51.65934,0.57609 -52.05832,45.54602 -0.43744,49.30405 52.05832,48.19189 52.05832,48.19189 h 309.99406 c 7.14658,0 12.89997,-5.75339 12.89997,-12.89999 v -67.93797 c 0,-7.1466 -5.75339,-12.89995 -12.89997,-12.89995 z m -14.86679,23.57062 a 23.299261,23.299261 0 0 1 23.29935,23.29935 23.299261,23.299261 0 0 1 -23.29935,23.29935 23.299261,23.299261 0 0 1 -23.29936,-23.29935 23.299261,23.299261 0 0 1 23.29936,-23.29935 z"
       id="path2251" />
    <path
       id="path2253"
       d="m 492.92886,203.48213 c 0,0 -51.65934,0.57609 -52.05832,45.54602 -0.43744,49.30405 52.05832,48.19189 52.05832,48.19189 h 309.99406 c 7.14658,0 12.89997,-5.75339 12.89997,-12.89999 v -67.93797 c 0,-7.1466 -5.75339,-12.89995 -12.89997,-12.89995 z m -14.86679,23.57062 a 23.299261,23.299261 0 0 1 23.29935,23.29935 23.299261,23.299261 0 0 1 -23.29935,23.29935 23.299261,23.299261 0 0 1 -23.29936,-23.29935 23.299261,23.299261 0 0 1 23.29936,-23.29935 z"
       style="opacity:1;fill:#ff2a2a;fill-opacity:1;fill-rule:nonzero;stroke:none;stroke-width:2.36000013;stroke-miterlimit:4;stroke-dasharray:none;stroke-opacity:1"
       inkscape:connector-curvature="0" />
    <path
       inkscape:connector-curvature="0"
       id="path2310"
       d="m -17.073006,336.90713 c -23.367283,0.36425 -43.110342,16.39074 -43.110342,16.39074 -3.736579,-0.77325 -5.461608,-0.36549 -8.454365,1.57575 -18.661754,-4.83947 -34.742247,-7.93194 -35.390637,-4.9503 -0.64837,2.98165 12.520029,5.84029 32.003248,9.84417 l -12.527686,11.26866 -9.283916,7.29532 -5.446481,3.51559 c -5.157825,0.1171 -9.839435,0.0975 -9.077475,3.20405 0,0 0.57898,3.57585 9.722382,1.93473 l 7.76715,-4.7567 8.887726,-6.38502 11.521217,-9.69802 3.233532,-2.98351 c 4.045931,0.27436 4.698032,0.57092 11.272487,-0.0833 7.157265,-0.52747 77.276427,25.50013 82.124274,4.12204 3.12261,-14.50984 -23.7042653,-29.53078 -38.524162,-30.14928 -1.585255,-0.12431 -3.159136,-0.16921 -4.716952,-0.14489 z m 0.496184,5.62598 c 1.089132,0.0263 2.148123,0.10991 3.168143,0.25901 12.87532575,1.88065 31.829732,11.89314 32.217359,22.04236 -0.428833,6.152 -20.4254733,3.58049 -38.694682,-0.61029 -21.546847,-4.94261 -36.914178,-4.68027 -36.481729,-7.40687 0.327078,-2.06224 23.453889,-14.67944 39.790909,-14.28421 z"
       style="fill:#ffffff;fill-opacity:1;stroke:none;stroke-width:0.65645057px;stroke-linecap:butt;stroke-linejoin:miter;stroke-opacity:1" />
    <path
       id="path2312"
       d="m 30.361593,312.5661 c 0,0 -51.659336,0.57609 -52.05832,45.54602 -0.437441,49.30405 52.05832,48.19189 52.05832,48.19189 H 340.3556 c 7.14658,0 12.89997,-5.75339 12.89997,-12.89999 v -67.93797 c 0,-7.1466 -5.75339,-12.89995 -12.89997,-12.89995 z m -14.866794,23.57062 a 23.299261,23.299261 0 0 1 23.299354,23.29935 23.299261,23.299261 0 0 1 -23.299354,23.29935 23.299261,23.299261 0 0 1 -23.299351,-23.29935 23.299261,23.299261 0 0 1 23.299351,-23.29935 z"
       style="opacity:1;fill:#7cb342;fill-opacity:1;fill-rule:nonzero;stroke:none;stroke-width:2.36000013;stroke-miterlimit:4;stroke-dasharray:none;stroke-opacity:1"
       inkscape:connector-curvature="0" />
    <path
       inkscape:connector-curvature="0"
       id="path2314"
       d="m -15.901581,336.90214 c -0.391389,-0.003 -0.781908,-9e-4 -1.171362,0.005 -23.367284,0.36424 -43.110276,16.39048 -43.110276,16.39048 -3.646379,-0.75459 -5.380649,-0.38021 -8.243297,1.44213 h 14.393925 c 6.31274,-4.20531 24.138207,-12.5289 37.455855,-12.20671 1.089131,0.0263 2.147895,0.10994 3.167914,0.25904 8.4486556,1.23407 19.5151091,5.96968 26.235312,11.94767 h 9.46428 c -7.636891,-9.58772 -24.1516231,-17.24964 -34.647007,-17.68766 -1.188941,-0.0932 -2.371178,-0.14184 -3.545344,-0.15003 z m -84.203289,11.85076 c -2.33787,-0.0261 -3.7412,0.332 -3.92356,1.17058 -0.34299,1.57731 3.18275,3.12012 9.462325,4.81634 h 25.405434 C -82.362526,351.3307 -94.20869,348.8187 -100.10487,348.7529 Z"
       style="fill:#ffffff;fill-opacity:1;stroke:none;stroke-width:0.65645057px;stroke-linecap:butt;stroke-linejoin:miter;stroke-opacity:1" />
    <path
       style="fill:#ffffff;fill-opacity:1;stroke:none;stroke-width:0.65645057px;stroke-linecap:butt;stroke-linejoin:miter;stroke-opacity:1"
       d="m -17.073006,447.27618 c -23.367283,0.36425 -43.110342,16.39074 -43.110342,16.39074 -3.736579,-0.77325 -5.461608,-0.36549 -8.454365,1.57575 -18.661754,-4.83947 -34.742247,-7.93194 -35.390637,-4.9503 -0.64837,2.98165 12.520029,5.84029 32.003248,9.84417 l -12.527686,11.26866 -9.283916,7.29532 -5.446481,3.51559 c -5.157825,0.1171 -9.839435,0.0975 -9.077475,3.20405 0,0 0.57898,3.57585 9.722382,1.93473 l 7.76715,-4.7567 8.887726,-6.38502 11.521217,-9.69802 3.233532,-2.98351 c 4.045931,0.27436 4.698032,0.57092 11.272487,-0.0833 7.157265,-0.52747 77.276427,25.50013 82.124274,4.12204 3.12261,-14.50984 -23.7042653,-29.53078 -38.524162,-30.14928 -1.585255,-0.12431 -3.159136,-0.16921 -4.716952,-0.14489 z m 0.496184,5.62598 c 1.089132,0.0263 2.148123,0.10991 3.168143,0.25901 12.87532575,1.88065 31.829732,11.89314 32.217359,22.04236 -0.428833,6.152 -20.4254733,3.58049 -38.694682,-0.61029 -21.546847,-4.94261 -36.914178,-4.68027 -36.481729,-7.40687 0.327078,-2.06224 23.453889,-14.67944 39.790909,-14.28421 z"
       id="path2316"
       inkscape:connector-curvature="0" />
    <path
       inkscape:connector-curvature="0"
       style="opacity:1;fill:#ffeb3b;fill-opacity:1;fill-rule:nonzero;stroke:none;stroke-width:2.36000013;stroke-miterlimit:4;stroke-dasharray:none;stroke-opacity:1"
       d="m 30.361593,422.93515 c 0,0 -51.659336,0.57609 -52.05832,45.54602 -0.437441,49.30405 52.05832,48.19189 52.05832,48.19189 H 340.3556 c 7.14658,0 12.89997,-5.75339 12.89997,-12.89999 V 435.8351 c 0,-7.1466 -5.75339,-12.89995 -12.89997,-12.89995 z m -14.866794,23.57062 a 23.299261,23.299261 0 0 1 23.299354,23.29935 23.299261,23.299261 0 0 1 -23.299354,23.29935 23.299261,23.299261 0 0 1 -23.299351,-23.29935 23.299261,23.299261 0 0 1 23.299351,-23.29935 z"
       id="path2318" />
    <path
       style="fill:#ffffff;fill-opacity:1;stroke:none;stroke-width:0.65645057px;stroke-linecap:butt;stroke-linejoin:miter;stroke-opacity:1"
       d="m -15.901581,447.27119 c -0.391389,-0.003 -0.781908,-9e-4 -1.171362,0.005 -23.367284,0.36424 -43.110276,16.39048 -43.110276,16.39048 -3.646379,-0.75459 -5.380649,-0.38021 -8.243297,1.44213 h 14.393925 c 6.31274,-4.20531 24.138207,-12.5289 37.455855,-12.20671 1.089131,0.0263 2.147895,0.10994 3.167914,0.25904 8.4486556,1.23407 19.5151091,5.96968 26.235312,11.94767 h 9.46428 c -7.636891,-9.58772 -24.1516231,-17.24964 -34.647007,-17.68766 -1.188941,-0.0932 -2.371178,-0.14184 -3.545344,-0.15003 z m -84.203289,11.85076 c -2.33787,-0.0261 -3.7412,0.332 -3.92356,1.17058 -0.34299,1.57731 3.18275,3.12012 9.462325,4.81634 h 25.405434 c -13.201855,-3.40912 -25.048019,-5.92112 -30.944199,-5.98692 z"
       id="path2320"
       inkscape:connector-curvature="0" />
    <path
       inkscape:connector-curvature="0"
       id="path2322"
       d="m -14.049196,559.15713 c -23.367283,0.36425 -43.110342,16.39074 -43.110342,16.39074 -3.736579,-0.77325 -5.461608,-0.36549 -8.454365,1.57575 -18.661754,-4.83947 -34.742247,-7.93194 -35.390637,-4.9503 -0.64837,2.98165 12.520029,5.84029 32.003248,9.84417 l -12.527686,11.26866 -9.283916,7.29532 -5.446481,3.51559 c -5.157825,0.1171 -9.839435,0.0975 -9.077475,3.20405 0,0 0.57898,3.57585 9.722382,1.93473 l 7.76715,-4.7567 8.887726,-6.38502 11.521217,-9.69802 3.233532,-2.98351 c 4.045931,0.27436 4.698032,0.57092 11.272487,-0.0833 7.157265,-0.52747 77.276427,25.50013 82.124274,4.12204 3.12261,-14.50984 -23.7042658,-29.53078 -38.5241625,-30.14928 -1.5852545,-0.12431 -3.1591355,-0.16921 -4.7169515,-0.14489 z m 0.496184,5.62598 c 1.089132,0.0263 2.148123,0.10991 3.168143,0.25901 12.8753253,1.88065 31.829732,11.89314 32.217359,22.04236 -0.428833,6.152 -20.4254738,3.58049 -38.694682,-0.61029 -21.546847,-4.94261 -36.914178,-4.68027 -36.481729,-7.40687 0.327078,-2.06224 23.453889,-14.67944 39.790909,-14.28421 z"
       style="fill:#7cb342;fill-opacity:1;stroke:none;stroke-width:0.65645057px;stroke-linecap:butt;stroke-linejoin:miter;stroke-opacity:1" />
    <path
       id="path2324"
       d="m 33.385403,534.8161 c 0,0 -51.659336,0.57609 -52.05832,45.54602 -0.437441,49.30405 52.05832,48.19189 52.05832,48.19189 H 343.37941 c 7.14658,0 12.89997,-5.75339 12.89997,-12.89999 v -67.93797 c 0,-7.1466 -5.75339,-12.89995 -12.89997,-12.89995 z M 18.518609,558.38672 A 23.299261,23.299261 0 0 1 41.817963,581.68607 23.299261,23.299261 0 0 1 18.518609,604.98542 23.299261,23.299261 0 0 1 -4.7807425,581.68607 23.299261,23.299261 0 0 1 18.518609,558.38672 Z"
       style="opacity:1;fill:#ffffff;fill-opacity:1;fill-rule:nonzero;stroke:none;stroke-width:2.36000013;stroke-miterlimit:4;stroke-dasharray:none;stroke-opacity:1"
       inkscape:connector-curvature="0" />
    <path
       inkscape:connector-curvature="0"
       id="path2326"
       d="m -12.877771,559.15214 c -0.391389,-0.003 -0.781908,-9e-4 -1.171362,0.005 -23.367284,0.36424 -43.110276,16.39048 -43.110276,16.39048 -3.646379,-0.75459 -5.380649,-0.38021 -8.243297,1.44213 h 14.393925 c 6.31274,-4.20531 24.138207,-12.5289 37.455855,-12.20671 1.089131,0.0263 2.147895,0.10994 3.167914,0.25904 8.4486551,1.23407 19.5151086,5.96968 26.235312,11.94767 h 9.46428 c -7.636891,-9.58772 -24.1516236,-17.24964 -34.6470075,-17.68766 -1.1889405,-0.0932 -2.3711775,-0.14184 -3.5453435,-0.15003 z M -97.08106,571.0029 c -2.33787,-0.0261 -3.7412,0.332 -3.92356,1.17058 -0.34299,1.57731 3.18275,3.12012 9.462325,4.81634 h 25.405434 C -79.338716,573.5807 -91.18488,571.0687 -97.08106,571.0029 Z"
       style="fill:#7cb342;fill-opacity:1;stroke:none;stroke-width:0.65645057px;stroke-linecap:butt;stroke-linejoin:miter;stroke-opacity:1" />
    <path
       id="path2247-7"
       d="m 491.51244,638.87915 c 0,0 -51.65934,0.57609 -52.05831,45.54605 -0.43743,49.30405 52.05831,48.19189 52.05831,48.19189 H 801.5065 c 7.14658,0 12.89997,-5.75339 12.89997,-12.89999 v -67.93797 c 0,-7.1466 -5.75339,-12.89998 -12.89997,-12.89998 z m -14.86678,23.57065 a 23.299261,23.299261 0 0 1 23.29934,23.29935 23.299261,23.299261 0 0 1 -23.29934,23.29935 23.299261,23.299261 0 0 1 -23.29937,-23.29935 23.299261,23.299261 0 0 1 23.29937,-23.29935 z"
       style="opacity:1;fill:#ffe81f;fill-opacity:1;fill-rule:nonzero;stroke:none;stroke-width:2.36000013;stroke-miterlimit:4;stroke-dasharray:none;stroke-opacity:1"
       inkscape:connector-curvature="0" />
    <path
       style="fill:#ffffff;fill-opacity:1;stroke:none;stroke-width:0.65645063px;stroke-linecap:butt;stroke-linejoin:miter;stroke-opacity:1"
       d="m -18.489432,668.88855 c -23.36728,0.36425 -43.11034,16.39074 -43.11034,16.39074 -3.73658,-0.77325 -5.46161,-0.36549 -8.45436,1.57575 -18.66176,-4.83947 -34.742248,-7.93194 -35.390638,-4.9503 -0.64837,2.98165 12.520028,5.84029 32.003248,9.84417 l -12.52769,11.26866 -9.28392,7.29532 -5.446478,3.51559 c -5.15782,0.1171 -9.83943,0.0975 -9.07747,3.20405 0,0 0.57898,3.57585 9.72238,1.93473 l 7.767148,-4.7567 8.88773,-6.38502 11.52122,-9.69802 3.23353,-2.98351 c 4.04593,0.27436 4.69803,0.57092 11.27248,-0.0833 7.15727,-0.52747 77.27643,25.50013 82.12428,4.12204 3.12261,-14.50984 -23.7042698,-29.53078 -38.52416,-30.14928 -1.58526,-0.12431 -3.15914,-0.16921 -4.71696,-0.14489 z m 0.49619,5.62598 c 1.08913,0.0263 2.14812,0.10991 3.16814,0.25901 12.8753302,1.88065 31.82974,11.89314 32.21736,22.04236 -0.42883,6.152 -20.4254698,3.58049 -38.69468,-0.61029 -21.54685,-4.94261 -36.91418,-4.68027 -36.48173,-7.40687 0.32707,-2.06224 23.45389,-14.67944 39.79091,-14.28421 z"
       id="path2316-5"
       inkscape:connector-curvature="0"
       inkscape:export-filename="/home/windows87/Área de Trabalho/Projetos/Jobs/Rifas/rifaMobile/img/mission-yellow.png"
       inkscape:export-xdpi="70.41832"
       inkscape:export-ydpi="70.41832" />
    <path
       inkscape:connector-curvature="0"
       style="opacity:1;fill:#ffe81f;fill-opacity:1;fill-rule:nonzero;stroke:none;stroke-width:2.36000013;stroke-miterlimit:4;stroke-dasharray:none;stroke-opacity:1"
       d="m 28.945178,644.54752 c 0,0 -51.65934,0.57609 -52.05833,45.54602 -0.43744,49.30405 52.05833,48.19189 52.05833,48.19189 H 338.93919 c 7.14658,0 12.89997,-5.75339 12.89997,-12.89999 v -67.93797 c 0,-7.1466 -5.75339,-12.89995 -12.89997,-12.89995 z m -14.8668,23.57062 a 23.299261,23.299261 0 0 1 23.29936,23.29935 23.299261,23.299261 0 0 1 -23.29936,23.29935 23.299261,23.299261 0 0 1 -23.2993498,-23.29935 23.299261,23.299261 0 0 1 23.2993498,-23.29935 z"
       id="path2318-3"
       inkscape:export-filename="/home/windows87/Área de Trabalho/Projetos/Jobs/Rifas/rifaMobile/img/mission-yellow.png"
       inkscape:export-xdpi="70.41832"
       inkscape:export-ydpi="70.41832" />
    <path
       style="fill:#ffffff;fill-opacity:1;stroke:none;stroke-width:0.65645063px;stroke-linecap:butt;stroke-linejoin:miter;stroke-opacity:1"
       d="m -17.318002,668.88356 c -0.39139,-0.003 -0.78191,-7.9e-4 -1.17136,0.005 -23.36729,0.36424 -43.11028,16.39048 -43.11028,16.39048 -3.64638,-0.75459 -5.38065,-0.38021 -8.2433,1.44213 h 14.39393 c 6.31274,-4.20531 24.13821,-12.5289 37.45585,-12.20671 1.08913,0.0263 2.1479,0.10994 3.16792,0.25904 8.4486502,1.23407 19.5151102,5.96968 26.23531,11.94767 h 9.46428 c -7.63689,-9.58772 -24.1516198,-17.24964 -34.64701,-17.68766 -1.18894,-0.0932 -2.37117,-0.14184 -3.54534,-0.15003 z m -84.203288,11.85076 c -2.33787,-0.0261 -3.7412,0.332 -3.92356,1.17058 -0.34299,1.57731 3.18275,3.12012 9.462318,4.81634 h 25.40544 c -13.20186,-3.40912 -25.04802,-5.92112 -30.944198,-5.98692 z"
       id="path2320-5"
       inkscape:connector-curvature="0"
       inkscape:export-filename="/home/windows87/Área de Trabalho/Projetos/Jobs/Rifas/rifaMobile/img/mission-yellow.png"
       inkscape:export-xdpi="70.41832"
       inkscape:export-ydpi="70.41832" />
    <path
       inkscape:connector-curvature="0"
       style="opacity:1;fill:#e7d000;fill-opacity:1;fill-rule:nonzero;stroke:none;stroke-width:2.36000013;stroke-miterlimit:4;stroke-dasharray:none;stroke-opacity:1"
       d="m 491.51244,638.87915 c 0,0 -51.65934,0.57609 -52.05831,45.54605 -0.43743,49.30405 52.05831,48.19189 52.05831,48.19189 H 801.5065 c 7.14658,0 12.89997,-5.75339 12.89997,-12.89999 v -67.93797 c 0,-7.1466 -5.75339,-12.89998 -12.89997,-12.89998 z m -14.86678,23.57065 a 23.299261,23.299261 0 0 1 23.29934,23.29935 23.299261,23.299261 0 0 1 -23.29934,23.29935 23.299261,23.299261 0 0 1 -23.29937,-23.29935 23.299261,23.299261 0 0 1 23.29937,-23.29935 z"
       id="path923"
       inkscape:export-filename="/home/windows87/Área de Trabalho/Projetos/Jobs/Rifas/rifaMobile/img/mission-yellow.png"
       inkscape:export-xdpi="70"
       inkscape:export-ydpi="70" />
    <path
       id="path925"
       d="m 28.945178,644.54752 c 0,0 -51.65934,0.57609 -52.05833,45.54602 -0.43744,49.30405 52.05833,48.19189 52.05833,48.19189 H 338.93919 c 7.14658,0 12.89997,-5.75339 12.89997,-12.89999 v -67.93797 c 0,-7.1466 -5.75339,-12.89995 -12.89997,-12.89995 z m -14.8668,23.57062 a 23.299261,23.299261 0 0 1 23.29936,23.29935 23.299261,23.299261 0 0 1 -23.29936,23.29935 23.299261,23.299261 0 0 1 -23.2993498,-23.29935 23.299261,23.299261 0 0 1 23.2993498,-23.29935 z"
       style="opacity:1;fill:#e7d000;fill-opacity:1;fill-rule:nonzero;stroke:none;stroke-width:2.36000013;stroke-miterlimit:4;stroke-dasharray:none;stroke-opacity:1"
       inkscape:connector-curvature="0"
       inkscape:export-filename="/home/windows87/Área de Trabalho/Projetos/Jobs/Rifas/rifaMobile/img/mission-yellow.png"
       inkscape:export-xdpi="70.41832"
       inkscape:export-ydpi="70.41832" />
  </g>
</svg>
